<svg xmlns="http://www.w3.org/2000/svg" width="256" height="256" viewBox="0 0 100 100"><rect width="100" height="100" rx="20" fill="#309418"></rect><path fill="#fff" d="M22.32 57.30L22.32 57.30Q21.98 57.55 21.40 57.75Q20.82 57.95 20.13 57.95L20.13 57.95Q19.32 57.95 18.70 57.70Q18.07 57.45 17.82 56.90L17.82 56.90Q15.13 51.30 13.18 46.65Q11.22 42.00 10.02 38.95L10.02 38.95L9.82 38.95Q9.67 42.70 9.50 45.92Q9.32 49.15 9.13 52.22Q8.92 55.30 8.72 58.45Q8.52 61.60 8.32 65.20L8.32 65.20Q8.02 65.30 7.55 65.40Q7.07 65.50 6.52 65.50L6.52 65.50Q5.42 65.50 4.97 65.05Q4.52 64.60 4.52 63.75L4.52 63.75Q4.52 63.25 4.60 61.60Q4.67 59.95 4.82 57.60Q4.97 55.25 5.15 52.40Q5.32 49.55 5.55 46.60Q5.77 43.65 6.00 40.80Q6.22 37.95 6.42 35.60L6.42 35.60Q6.82 35.25 7.57 34.95Q8.32 34.65 9.27 34.65L9.27 34.65Q11.57 34.65 12.47 36.50L12.47 36.50Q13.43 38.45 14.40 40.62Q15.38 42.80 16.35 45.05Q17.32 47.30 18.25 49.50Q19.18 51.70 20.03 53.70L20.03 53.70L20.23 53.70Q21.32 51.05 22.43 48.47Q23.53 45.90 24.57 43.50Q25.63 41.10 26.57 39.00Q27.53 36.90 28.28 35.15L28.28 35.15Q28.73 34.90 29.43 34.77Q30.13 34.65 30.73 34.65L30.73 34.65Q33.07 34.65 33.42 36.25L33.42 36.25Q33.63 37.15 33.88 39.22Q34.13 41.30 34.38 44.00Q34.63 46.70 34.85 49.80Q35.07 52.90 35.27 55.77Q35.47 58.65 35.63 61.07Q35.77 63.50 35.88 64.90L35.88 64.90Q34.97 65.50 33.77 65.50L33.77 65.50Q33.02 65.50 32.45 65.12Q31.88 64.75 31.78 63.75L31.78 63.75Q31.53 60.10 31.32 56.50Q31.13 52.90 30.95 49.65Q30.78 46.40 30.63 43.67Q30.48 40.95 30.38 39.05L30.38 39.05L30.18 39.05Q29.63 40.45 28.90 42.20Q28.18 43.95 27.20 46.15Q26.23 48.35 25.03 51.12Q23.82 53.90 22.32 57.30ZM68.07 50.85L68.07 61.70Q68.07 62.60 67.55 63.20Q67.03 63.80 65.97 64.35L65.97 64.35Q64.72 64.95 62.52 65.40Q60.32 65.85 58.07 65.85L58.07 65.85Q54.57 65.85 51.67 64.90Q48.77 63.95 46.67 62.00Q44.57 60.05 43.42 57.07Q42.27 54.10 42.27 50.05L42.27 50.05Q42.27 46.05 43.47 43.05Q44.67 40.05 46.75 38.07Q48.82 36.10 51.57 35.12Q54.32 34.15 57.42 34.15L57.42 34.15Q59.52 34.15 61.30 34.50Q63.07 34.85 64.32 35.42Q65.57 36.00 66.28 36.70Q66.97 37.40 66.97 38.10L66.97 38.10Q66.97 38.80 66.57 39.30Q66.17 39.80 65.63 40.05L65.63 40.05Q64.28 39.15 62.42 38.37Q60.57 37.60 57.67 37.60L57.67 37.60Q55.27 37.60 53.22 38.40Q51.17 39.20 49.67 40.75Q48.17 42.30 47.32 44.65Q46.47 47.00 46.47 50.05L46.47 50.05Q46.47 53.30 47.35 55.62Q48.22 57.95 49.80 59.45Q51.38 60.95 53.50 61.67Q55.63 62.40 58.13 62.40L58.13 62.40Q59.92 62.40 61.52 62.10Q63.13 61.80 64.03 61.35L64.03 61.35L64.03 52.15L56.47 52.15Q56.32 51.90 56.17 51.47Q56.02 51.05 56.02 50.55L56.02 50.55Q56.02 49.70 56.42 49.22Q56.82 48.75 57.57 48.75L57.57 48.75L65.92 48.75Q66.82 48.75 67.45 49.32Q68.07 49.90 68.07 50.85L68.07 50.85ZM78.18 65.20L78.18 65.20Q77.18 65.20 76.58 64.60Q75.98 64.00 75.98 63.00L75.98 63.00L75.98 37.00Q75.98 36.00 76.58 35.40Q77.18 34.80 78.18 34.80L78.18 34.80L94.78 34.80Q94.93 35.05 95.08 35.47Q95.23 35.90 95.23 36.40L95.23 36.40Q95.23 37.25 94.83 37.75Q94.43 38.25 93.68 38.25L93.68 38.25L80.03 38.25L80.03 47.90L93.23 47.90Q93.38 48.15 93.53 48.57Q93.68 49.00 93.68 49.50L93.68 49.50Q93.68 50.35 93.28 50.82Q92.88 51.30 92.13 51.30L92.13 51.30L80.03 51.30L80.03 61.80L95.03 61.80Q95.18 62.05 95.33 62.45Q95.48 62.85 95.48 63.40L95.48 63.40Q95.48 64.25 95.08 64.72Q94.68 65.20 93.93 65.20L93.93 65.20L78.18 65.20Z"></path></svg>